<mxfile host="app.diagrams.net" modified="2021-09-16T02:50:41.600Z" agent="5.0 (X11)" etag="nGhm-vcHY36CoM40Scw0" version="15.2.7" type="github">
  <diagram name="Page-1" id="b5b7bab2-c9e2-2cf4-8b2a-24fd1a2a6d21">
    <mxGraphModel dx="1422" dy="741" grid="1" gridSize="10" guides="1" tooltips="1" connect="1" arrows="1" fold="1" page="1" pageScale="1" pageWidth="827" pageHeight="1169" background="none" math="0" shadow="0">
      <root>
        <mxCell id="0" />
        <mxCell id="1" parent="0" />
        <mxCell id="6e0c8c40b5770093-72" value="" style="shape=folder;fontStyle=1;spacingTop=10;tabWidth=194;tabHeight=22;tabPosition=left;html=1;rounded=0;shadow=0;comic=0;labelBackgroundColor=none;strokeWidth=1;fillColor=none;fontFamily=Verdana;fontSize=10;align=center;" parent="1" vertex="1">
          <mxGeometry x="60" y="40" width="270" height="240" as="geometry" />
        </mxCell>
        <mxCell id="6e0c8c40b5770093-73" value="com.appgate.test.operators" style="text;html=1;align=left;verticalAlign=top;spacingTop=-4;fontSize=10;fontFamily=Verdana" parent="1" vertex="1">
          <mxGeometry x="70" y="40" width="130" height="20" as="geometry" />
        </mxCell>
        <mxCell id="KsFL_70kzBz1XKyaGsYz-9" value="" style="edgeStyle=orthogonalEdgeStyle;rounded=0;orthogonalLoop=1;jettySize=auto;html=1;" edge="1" parent="1" source="KsFL_70kzBz1XKyaGsYz-7" target="KsFL_70kzBz1XKyaGsYz-8">
          <mxGeometry relative="1" as="geometry" />
        </mxCell>
        <mxCell id="KsFL_70kzBz1XKyaGsYz-7" value="controller" style="shape=folder;fontStyle=1;spacingTop=10;tabWidth=40;tabHeight=14;tabPosition=left;html=1;" vertex="1" parent="1">
          <mxGeometry x="90" y="100" width="70" height="50" as="geometry" />
        </mxCell>
        <mxCell id="KsFL_70kzBz1XKyaGsYz-8" value="service" style="shape=folder;fontStyle=1;spacingTop=10;tabWidth=40;tabHeight=14;tabPosition=left;html=1;" vertex="1" parent="1">
          <mxGeometry x="210" y="160" width="70" height="50" as="geometry" />
        </mxCell>
      </root>
    </mxGraphModel>
  </diagram>
</mxfile>
